<?xml version="1.0" encoding="UTF-8"?>
<svg xmlns="http://www.w3.org/2000/svg" xmlns:xlink="http://www.w3.org/1999/xlink" viewBox="0 0 384 384" width="384px" height="384px">
<g id="surface239364118">
<path style=" stroke:none;fill-rule:nonzero;fill:rgb(100%,100%,100%);fill-opacity:1;" d="M 172.320312 34.558594 L 14.878906 132.960938 L 122.964844 132.960938 C 122.5625 134.445312 121.90625 135.796875 121.582031 137.34375 C 120.675781 142.105469 119.96875 147.34375 119.96875 152.792969 C 119.96875 223.070312 191.808594 215.140625 191.808594 215.140625 L 191.808594 233.050781 C 191.808594 240.3125 201.332031 237.796875 202.453125 252.539062 C 197.691406 252.539062 102.941406 249.8125 102.941406 313.730469 C 102.941406 377.886719 186.582031 374.730469 186.582031 374.730469 C 186.582031 374.730469 283.171875 379.050781 283.171875 299.703125 C 283.214844 252.292969 227.863281 236.859375 227.863281 217.828125 C 227.863281 198.5625 269.566406 192.902344 269.566406 147.796875 C 269.566406 128.078125 268.21875 114.03125 259.382812 104.054688 C 258.691406 103.367188 258.242188 102.894531 257.574219 102.441406 C 257.421875 102.300781 257.230469 102.195312 257.074219 102.054688 L 259.496094 102.054688 L 300.238281 71.5 L 300.238281 113.28125 C 300.230469 114.042969 300.304688 114.804688 300.46875 115.546875 C 294.175781 119.070312 290.3125 125.75 290.398438 132.960938 L 290.398438 152.640625 C 290.300781 159.738281 294.027344 166.339844 300.160156 169.917969 C 306.289062 173.496094 313.871094 173.496094 320 169.917969 C 326.132812 166.339844 329.859375 159.738281 329.761719 152.640625 L 329.761719 132.960938 C 329.847656 125.75 325.984375 119.070312 319.6875 115.546875 C 319.855469 114.804688 319.929688 114.042969 319.921875 113.28125 L 319.921875 56.699219 L 349.441406 34.558594 Z M 185.925781 94.636719 C 191.589844 94.382812 197.292969 95.757812 202.722656 98.828125 C 206.796875 100.875 210.621094 103.796875 214.023438 107.4375 C 221.050781 114.464844 226.960938 124.664062 230.128906 136.6875 C 237.609375 165.242188 227.894531 192.703125 207.722656 197.917969 C 187.765625 203.566406 165.523438 184.9375 157.828125 156.597656 C 154.425781 142.785156 154.894531 129.421875 158.75 118.777344 C 158.789062 118.640625 158.867188 118.527344 158.90625 118.390625 C 158.972656 118.359375 159.070312 118.269531 159.136719 118.238281 C 160.242188 114.027344 162.050781 110.253906 164.25 107.128906 C 168.292969 101.21875 173.628906 97.21875 180.277344 95.445312 C 182.144531 94.992188 184.039062 94.722656 185.925781 94.636719 Z M 193.613281 264.53125 C 226.933594 262.03125 255.296875 280.378906 257.34375 305.3125 C 258.722656 330.03125 233.089844 352.019531 199.535156 354.28125 C 166.214844 356.546875 137.4375 338.449219 135.84375 313.730469 C 134.25 288.796875 160.058594 267.03125 193.613281 264.53125 Z M 193.613281 264.53125 "/>
</g>
</svg>
